SplineFontDB: 3.0
FontName: NimboTwelve
FullName: Nimbo Twelve
FamilyName: NimboTwelve
Weight: Regular
Copyright: Created by trashman with FontForge 2.0 (http://fontforge.sf.net)
UComments: "Scan 6400, cut to 1060, no scaling." 
Version: 0.1
ItalicAngle: 0
UnderlinePosition: -100
UnderlineWidth: 50
Ascent: 680
Descent: 320
LayerCount: 3
Layer: 0 0 "Back"  1
Layer: 1 0 "Fore"  0
Layer: 2 0 "backup"  0
NeedsXUIDChange: 1
XUID: [1021 658 797806517 11461781]
OS2Version: 0
OS2_WeightWidthSlopeOnly: 0
OS2_UseTypoMetrics: 1
CreationTime: 1288472788
ModificationTime: 1288761595
OS2TypoAscent: 0
OS2TypoAOffset: 1
OS2TypoDescent: 0
OS2TypoDOffset: 1
OS2TypoLinegap: 0
OS2WinAscent: 0
OS2WinAOffset: 1
OS2WinDescent: 0
OS2WinDOffset: 1
HheadAscent: 0
HheadAOffset: 1
HheadDescent: 0
HheadDOffset: 1
OS2Vendor: 'PfEd'
MarkAttachClasses: 1
DEI: 91125
Encoding: UnicodeBmp
UnicodeInterp: none
NameList: Adobe Glyph List
DisplaySize: -48
AntiAlias: 1
FitToEm: 1
WinInfo: 84 12 4
BeginPrivate: 9
BlueValues 7 [-12 0]
OtherBlues 2 []
BlueScale 8 0.039625
BlueShift 1 7
BlueFuzz 1 0
StdHW 4 [36]
StemSnapH 28 [20 25 30 36 44 48 63 79 86]
StdVW 4 [66]
StemSnapV 28 [65 66 68 71 72 75 78 80 84]
EndPrivate
BeginChars: 65537 64

StartChar: a
Encoding: 97 97 0
Width: 360
VWidth: 0
Flags: HW
HStem: -11 40<91 179.987> -8 47<256.5 331.47> 329 38<129.9 212.36>
VStem: 30 71<42.8433 119.176> 40 78<257.293 308.212> 225 65<44.3284 161.998 179.25 320.744>
LayerCount: 3
Fore
SplineSet
288 70 m 0xac
 288 52 290 39 307 39 c 0
 322 39 327 52 338 52 c 0
 343 52 348 50 348 42 c 0
 348 21 310 -8 284 -8 c 0x6c
 229 -8 228 36 224 36 c 0
 219 36 214 29 194 17 c 0
 174 5 149 -11 115 -11 c 0
 67 -11 30 22 30 71 c 0xb4
 30 127 95 148 151 165 c 0
 174 172 195 177 210 181 c 0
 221 184 225 190 225 201 c 2
 225 245 l 2
 225 297 216 329 175 329 c 0
 165 329 155 328 142 324 c 0
 118 317 121 311 118 296 c 0
 112 268 95 246 62 246 c 0
 47 246 40 256 40 272 c 0
 40 289 58 307 78 321 c 0
 109 343 169 367 202 367 c 0
 254 367 290 348 290 258 c 2
 290 231 l 2
 290 185 288 99 288 70 c 0xac
160 29 m 0xb4
 183 29 225 51 225 73 c 2
 225 147 l 2
 225 159 221 162 215 162 c 0
 211 162 206 160 201 159 c 0
 162 150 101 133 101 90 c 0
 101 52 130 29 160 29 c 0xb4
EndSplineSet
EndChar

StartChar: b
Encoding: 98 98 1
Width: 429
VWidth: 0
Flags: HW
HStem: -12 27<155.812 262.217> -4 21G<57 67.5> 319 33<165.25 260.349>
VStem: 53 65<41.8346 298.224 306.004 591.516> 336 63<81.4316 250.746>
LayerCount: 3
Fore
SplineSet
235 366 m 0x78
 306 366 410 313 410 186 c 0
 410 113 363 -12 211 -12 c 0xb8
 135 -12 113 12 94 12 c 0
 81 12 74 -5 63 -5 c 0
 53 -5 53 7 53 19 c 2
 53 570 l 2
 53 583 47 595 38 601 c 2
 22 612 l 2
 11 620 6 624 6 628 c 0
 6 634 13 637 28 643 c 2
 88 666 l 2
 97 669 109 674 114 674 c 0
 119 674 122 671 122 662 c 0
 122 638 118 434 118 364 c 2
 118 339 l 2
 118 326 118 321 121 321 c 0
 123 321 127 325 133 330 c 0
 156 349 190 366 235 366 c 0x78
215 23 m 0
 288 23 338 97 338 180 c 0
 338 266 279 330 199 330 c 0
 158 330 118 296 118 284 c 2
 118 117 l 2
 118 73 143 23 215 23 c 0
EndSplineSet
EndChar

StartChar: c
Encoding: 99 99 2
Width: 358
VWidth: 0
Flags: HW
LayerCount: 3
Fore
SplineSet
223 369 m 0
 260 369 332 361 332 322 c 0
 332 302 318 291 304 291 c 0
 283 291 269 308 257 318 c 0
 246 327 229 331 208 331 c 0
 126 331 82 263 82 192 c 0
 82 103 143 38 221 38 c 0
 290 38 308 74 320 74 c 0
 326 74 329 67 329 63 c 0
 329 20 254 -10 197 -10 c 0
 92 -10 21 58 21 167 c 0
 21 281 105 369 223 369 c 0
EndSplineSet
Layer: 2
SplineSet
223 369 m 4
 260 369 332 361 332 322 c 4
 332 302 318 291 304 291 c 4
 283 291 269 308 257 318 c 4
 246 327 229 331 208 331 c 4
 126 331 82 263 82 192 c 4
 82 103 143 38 221 38 c 4
 249 38 280 45 302 63 c 4
 308 68 315 74 320 74 c 4
 326 74 329 67 329 63 c 4
 329 52 323 40 314 31 c 4
 284 3 239 -10 197 -10 c 4
 92 -10 21 58 21 167 c 4
 21 281 105 369 223 369 c 4
EndSplineSet
EndChar

StartChar: d
Encoding: 100 100 3
Width: 457
VWidth: 0
Flags: HW
HStem: -8 38<153.287 257.306> 27 26<397.896 429.881> 327 29<172.822 274.744>
VStem: 31 71<82.2676 245.779> 317 65<39.0044 41 61.262 295.734 339.002 602.625>
LayerCount: 3
Fore
SplineSet
190 -8 m 0xb8
 88 -8 31 50 31 149 c 0
 31 276 121 356 233 356 c 0
 258 356 280 351 296 346 c 0
 303 344 310 339 314 339 c 0
 318 339 320 342 320 351 c 0
 320 363 320 543 317 570 c 0
 315 589 313 595 301 600 c 2
 283 608 l 2
 275 611 272 615 272 618 c 0
 272 622 277 626 284 630 c 2
 351 666 l 2
 360 671 367 676 373 676 c 0
 378 676 382 672 382 659 c 2
 382 51 l 2
 382 45 383 39 389 39 c 0
 394 39 421 53 424 53 c 0
 428 53 430 45 430 37 c 0
 430 32 430 29 426 27 c 0x78
 400 16 357 -6 338 -13 c 0
 333 -15 328 -17 325 -17 c 0
 317 -17 317 -11 317 5 c 2
 317 41 l 2
 317 53 316 53 307 45 c 0
 288 28 243 -8 190 -8 c 0xb8
216 327 m 0
 156 327 102 250 102 177 c 0
 102 112 128 30 208 30 c 0xb8
 262 30 317 67 317 97 c 2
 317 231 l 2
 317 301 268 327 216 327 c 0
EndSplineSet
EndChar

StartChar: e
Encoding: 101 101 4
Width: 368
VWidth: 0
Flags: HW
HStem: -9 47<148.383 279.051> 237 25<108.001 263.64> 338 30<148.149 251.511>
VStem: 24 63<101.222 240.384> 269 61<248.5 321.765>
LayerCount: 3
Fore
SplineSet
89 215 m 0
 88 205 87 195 87 185 c 0
 87 105 135 39 221 39 c 0
 290 39 317 73 329 73 c 0
 332 73 334 71 334 66 c 0
 334 26 248 -10 196 -10 c 0
 89 -10 23 68 23 173 c 0
 23 280 97 369 205 369 c 0
 291 369 330 310 330 255 c 0
 330 242 320 236 305 236 c 0
 242 237 181 239 118 239 c 0
 102 239 92 237 89 215 c 0
234 265 m 0
 250 265 268 269 268 291 c 0
 268 313 245 337 208 337 c 0
 164 337 139 319 125 300 c 0
 117 289 110 275 110 267 c 0
 110 263 112 260 118 260 c 0
 133 260 191 264 234 265 c 0
EndSplineSet
Layer: 2
SplineSet
89 215 m 4
 88 205 87 195 87 185 c 4
 87 105 135 39 221 39 c 4
 262 39 295 52 321 70 c 4
 326 73 334 75 334 66 c 4
 334 26 248 -10 196 -10 c 4
 89 -10 23 68 23 173 c 4
 23 280 97 369 205 369 c 4
 291 369 330 310 330 255 c 4
 330 242 320 236 305 236 c 4
 242 237 181 239 118 239 c 4
 102 239 92 237 89 215 c 4
234 265 m 4
 250 265 268 269 268 291 c 4
 268 313 245 337 208 337 c 4
 164 337 139 319 125 300 c 4
 117 289 110 275 110 267 c 4
 110 263 112 260 118 260 c 4
 133 260 191 264 234 265 c 4
EndSplineSet
EndChar

StartChar: f
Encoding: 102 102 5
Width: 281
VWidth: 0
Flags: HW
HStem: -2 29<146.635 239.986> 311 26<29.2994 44> 319 32<136 255.999> 621 47<154.768 253.555>
VStem: 75 61<33.5313 310.749 351.03 575.935>
LayerCount: 3
Fore
SplineSet
281 632 m 0xd8
 281 614 265 602 244 602 c 0
 217 602 206 620 192 620 c 0
 183 620 177 617 169 609 c 0
 150 590 138 552 138 510 c 2
 138 366 l 2
 138 351 138 351 152 351 c 2
 247 351 l 2
 255 351 256 347 256 335 c 0
 256 324 255 317 247 317 c 2
 155 317 l 2xb8
 140 317 138 317 138 304 c 2
 138 74 l 2
 138 42 151 27 196 27 c 2
 203 27 l 2
 221 27 240 26 240 12 c 0
 240 3 236 -2 210 -2 c 0
 179 -2 146 0 109 0 c 0
 85 0 58 -2 39 -2 c 0
 28 -2 18 0 18 12 c 0
 18 36 73 18 73 59 c 2
 73 295 l 2
 73 311 68 312 54 312 c 2
 45 312 l 2
 34 312 29 316 29 323 c 0
 29 331 34 337 44 341 c 2
 64 350 l 2
 75 355 75 353 75 363 c 2
 75 421 l 2
 75 518 96 585 130 624 c 0
 157 655 203 668 229 668 c 0
 252 668 281 660 281 632 c 0xd8
EndSplineSet
EndChar

StartChar: g
Encoding: 103 103 6
Width: 472
VWidth: 0
Flags: HW
LayerCount: 3
Fore
SplineSet
180 -307 m 0
 104 -307 34 -278 34 -203 c 0xea60
 34 -163 73 -122 111 -83 c 0
 117 -77 131 -66 114 -66 c 0
 92 -66 49 -40 49 -8 c 0xe960
 49 20 83 43 110 62 c 0
 136 81 150 87 150 93 c 0
 150 96 139 98 130 104 c 0
 94 129 57 155 57 227 c 0
 57 303 130 365 213 365 c 0
 288 365 326 334 334 334 c 0xe8e0
 343 334 427 338 432 338 c 0
 449 338 456 337 456 321 c 2
 456 303 l 2
 456 290 448 284 441 284 c 0xf0e0
 435 284 380 295 358 299 c 0
 349 300 350 296 353 286 c 0
 356 274 361 255 361 231 c 0
 361 136 283 85 203 85 c 0
 195 85 188 86 183 86 c 0
 175 86 172 85 164 80 c 0
 135 59 113 38 113 28 c 0xe960
 113 -8 156 -10 180 -10 c 2
 312 -10 l 2
 381 -10 429 -38 429 -103 c 0
 429 -227 307 -307 180 -307 c 0
364 -131 m 0
 364 -82 332 -66 290 -66 c 2
 167 -66 l 2
 160 -66 148 -66 141 -74 c 0
 111 -105 93 -133 93 -160 c 0
 93 -228 158 -264 226 -264 c 0
 273 -264 315 -243 343 -200 c 0
 356 -181 364 -157 364 -131 c 0
117 219 m 0
 117 160 143 109 204 109 c 0
 273 109 301 156 301 228 c 0
 301 280 269 339 210 339 c 0
 146 339 117 274 117 219 c 0
EndSplineSet
EndChar

StartChar: h
Encoding: 104 104 7
Width: 194
VWidth: 0
Flags: W
LayerCount: 3
Fore
SplineSet
47 262 m 0
 47 290 69 312 97 312 c 0
 125 312 147 290 147 262 c 0
 147 234 125 212 97 212 c 0
 69 212 47 234 47 262 c 0
EndSplineSet
EndChar

StartChar: i
Encoding: 105 105 8
Width: 225
VWidth: 0
Flags: HW
HStem: -2 26<142.875 187.84> 498 94<66.5957 145.404>
VStem: 58 96<505.963 583.404> 70 65<26.582 300.375>
LayerCount: 3
Fore
SplineSet
42 328 m 2xd0
 105 365 l 2
 112 369 121 376 127 376 c 0
 132 376 135 373 135 362 c 2
 135 67 l 2
 135 39 146 28 165 24 c 0
 187 19 188 16 188 8 c 0
 188 2 179 -2 171 -2 c 0
 149 -2 133 0 107 0 c 0
 90 0 59 -2 54 -2 c 0
 42 -2 29 -2 29 9 c 0
 29 20 41 22 54 29 c 0
 69 37 70 44 70 71 c 2
 70 278 l 2
 70 287 67 291 60 294 c 2
 38 306 l 2
 32 309 29 312 29 315 c 0
 29 319 35 324 42 328 c 2xd0
58 544 m 0xe0
 58 569 81 592 106 592 c 0
 131 592 154 569 154 544 c 0
 154 519 131 498 106 498 c 0
 81 498 58 519 58 544 c 0xe0
EndSplineSet
EndChar

StartChar: j
Encoding: 106 106 9
Width: 207
VWidth: 0
Flags: W
HStem: -231 64<-1.90547 42.625> 498 94<66.5957 145.404>
VStem: 58 96<505.963 583.404> 69 65<-108.064 310.781>
LayerCount: 3
Fore
SplineSet
58 544 m 0xe0
 58 569 81 592 106 592 c 0
 131 592 154 569 154 544 c 0
 154 519 131 498 106 498 c 0
 81 498 58 519 58 544 c 0xe0
69 15 m 2xd0
 69 270 l 2
 69 294 62 301 54 306 c 2
 41 315 l 2
 36 319 30 323 30 327 c 0
 30 331 34 335 44 339 c 2
 114 368 l 2
 117 369 123 372 128 372 c 0
 132 372 135 370 135 365 c 0
 135 347 134 237 134 165 c 2
 134 -24 l 2
 134 -87 107 -121 80 -159 c 0
 51 -199 32 -231 12 -231 c 0
 0 -231 -9 -220 -9 -198 c 0
 -9 -190 -7 -178 -2 -172 c 0
 0 -169 3 -167 19 -167 c 2
 26 -167 l 2
 33 -167 69 -134 69 15 c 2xd0
EndSplineSet
EndChar

StartChar: k
Encoding: 107 107 10
Width: 194
VWidth: 0
Flags: W
LayerCount: 3
Fore
SplineSet
47 262 m 0
 47 290 69 312 97 312 c 0
 125 312 147 290 147 262 c 0
 147 234 125 212 97 212 c 0
 69 212 47 234 47 262 c 0
EndSplineSet
EndChar

StartChar: l
Encoding: 108 108 11
Width: 194
VWidth: 0
Flags: W
LayerCount: 3
Fore
SplineSet
47 262 m 0
 47 290 69 312 97 312 c 0
 125 312 147 290 147 262 c 0
 147 234 125 212 97 212 c 0
 69 212 47 234 47 262 c 0
EndSplineSet
EndChar

StartChar: m
Encoding: 109 109 12
Width: 194
VWidth: 0
Flags: W
LayerCount: 3
Fore
SplineSet
47 262 m 0
 47 290 69 312 97 312 c 0
 125 312 147 290 147 262 c 0
 147 234 125 212 97 212 c 0
 69 212 47 234 47 262 c 0
EndSplineSet
EndChar

StartChar: n
Encoding: 110 110 13
Width: 479
VWidth: 0
Flags: HW
HStem: -2 28<22.0586 66.4083 144.426 192.942 276.011 326.158 398.063 442.922> 326 40<204.044 299.127>
VStem: 69 65<36.3268 294.806> 331 65<27.7415 296.679>
LayerCount: 3
Fore
SplineSet
145 372 m 0
 145 366 139 322 139 312 c 0
 139 300 149 311 154 314 c 0
 194 338 220 366 275 366 c 0
 377 366 396 296 396 240 c 2
 396 55 l 2
 396 33 404 28 418 26 c 0
 431 24 443 20 443 11 c 0
 443 3 438 -2 428 -2 c 0
 421 -2 371 0 364 0 c 0
 338 0 311 -2 295 -2 c 0
 285 -2 276 1 276 12 c 0
 276 22 291 26 304 27 c 0
 329 29 331 46 331 74 c 2
 331 233 l 2
 331 297 289 326 241 326 c 0
 232 326 191 318 168 303 c 0
 153 293 134 283 134 261 c 2
 134 87 l 2
 134 48 138 43 144 36 c 0
 153 26 168 26 181 22 c 0
 188 20 193 18 193 11 c 0
 193 -1 180 -2 163 -2 c 0
 149 -2 122 0 103 0 c 0
 84 0 57 -2 42 -2 c 0
 31 -2 22 0 22 11 c 0
 22 21 30 24 41 26 c 0
 59 30 69 30 69 59 c 2
 69 274 l 2
 69 281 67 290 60 297 c 2
 48 309 l 2
 40 317 38 321 51 329 c 2
 117 372 l 2
 120 374 131 382 138 382 c 0
 142 382 145 379 145 372 c 0
EndSplineSet
EndChar

StartChar: o
Encoding: 111 111 14
Width: 410
VWidth: 0
Flags: HW
HStem: -10 33<147.197 246.745> 333 34<146.098 250.377>
VStem: 18 69<83.8424 270.698> 305 73<87.9889 277.047>
LayerCount: 3
Fore
SplineSet
202 333 m 0
 141 333 87 285 87 172 c 0
 87 96 128 23 202 23 c 0
 232 23 305 54 305 178 c 0
 305 258 270 333 202 333 c 0
200 -10 m 0
 90 -10 17 70 17 162 c 0
 17 313 109 367 202 367 c 0
 309 367 378 294 378 177 c 0
 378 76 302 -10 200 -10 c 0
EndSplineSet
EndChar

StartChar: p
Encoding: 112 112 15
Width: 194
VWidth: 0
Flags: W
LayerCount: 3
Fore
SplineSet
47 262 m 0
 47 290 69 312 97 312 c 0
 125 312 147 290 147 262 c 0
 147 234 125 212 97 212 c 0
 69 212 47 234 47 262 c 0
EndSplineSet
EndChar

StartChar: q
Encoding: 113 113 16
Width: 194
VWidth: 0
Flags: W
LayerCount: 3
Fore
SplineSet
47 262 m 0
 47 290 69 312 97 312 c 0
 125 312 147 290 147 262 c 0
 147 234 125 212 97 212 c 0
 69 212 47 234 47 262 c 0
EndSplineSet
EndChar

StartChar: r
Encoding: 114 114 17
Width: 304
VWidth: 0
Flags: HW
LayerCount: 3
Fore
SplineSet
294 324 m 0
 294 302 278 284 254 284 c 0
 233 284 225 294 194 294 c 0
 176 294 163 288 148 274 c 0
 133 260 130 249 130 224 c 2
 130 74 l 2
 130 30 150 33 186 30 c 0
 200 29 205 22 205 14 c 0
 205 8 202 -2 188 -2 c 0
 166 -2 133 0 107 0 c 0
 89 0 64 -2 52 -2 c 0
 40 -2 30 0 30 11 c 0
 30 20 36 23 49 29 c 0
 65 36 69 45 69 80 c 2
 69 275 l 2
 69 285 63 291 56 295 c 2
 44 303 l 2
 37 308 34 311 34 314 c 0
 34 318 40 322 47 327 c 2
 118 379 l 2
 122 382 128 385 132 385 c 0
 136 385 138 382 138 376 c 0
 138 372 127 295 127 291 c 0
 127 288 128 287 130 287 c 0
 134 287 161 316 164 319 c 0
 186 338 208 361 250 361 c 0
 271 361 294 349 294 324 c 0
EndSplineSet
EndChar

StartChar: s
Encoding: 115 115 18
Width: 311
VWidth: 0
Flags: HW
LayerCount: 3
Fore
SplineSet
118 19 m 0
 169 19 197 43 197 77 c 0
 197 147 39 171 39 267 c 0
 39 338 110 366 168 366 c 0x9c
 185 366 200 364 217 359 c 0
 234 354 239 345 240 339 c 0
 241.486139639 326.73934798 244.431532438 304 244.431532438 301.439159774 c 0
 244.431532438 292.857158361 242.412109375 285 233 285 c 0x2c
 229 285 222 289 218 296 c 2
 202 319 l 2
 193 332 176 336 160 336 c 0
 126.206066989 336 98.9810527159 313.621077555 98.9810527159 276.864580692 c 0
 98.9810527159 224 252 189.41796875 252 98 c 0
 252 28 197 -9 117 -9 c 0x9c
 88 -9 64 -5 46 1 c 0
 29 7 21 9 21 31 c 2x4c
 21 47 l 2
 21 65 22 76 34 76 c 0
 39 76 44 71 50 60 c 0
 65 34 82 19 118 19 c 0
EndSplineSet
EndChar

StartChar: t
Encoding: 116 116 19
Width: 308
VWidth: 0
Flags: HWO
HStem: -7 48<145.186 250.082> 314 44<134.186 279>
VStem: 63 65<58.2317 308.516>
LayerCount: 3
Fore
SplineSet
162 -7 m 0
 109 -7 63 30 63 89 c 2
 63 293 l 2
 63 301 63 308 50 308 c 0
 36 308 31 312 31 318 c 0
 31 322 33 327 38 333 c 2
 111 417 l 2
 114 421 121 427 127 427 c 0
 131 427 134 424 134 415 c 2
 134 370 l 2
 134 358 134 358 147 358 c 2
 271 358 l 2
 279 358 279 344 279 336 c 0
 279 328 279 314 271 314 c 2
 144 314 l 2
 131 314 128 313 128 302 c 2
 128 127 l 2
 128 71 148 41 199 41 c 0
 241 41 257 63 272 63 c 0
 277 63 284 60 284 50 c 0
 284 20 209 -7 162 -7 c 0
EndSplineSet
Layer: 2
SplineSet
163 -7 m 4
 110 -7 64 30 64 89 c 6
 64 293 l 6
 64 301 64 308 51 308 c 4
 37 308 32 312 32 318 c 4
 32 322 34 327 39 333 c 6
 112 417 l 6
 115 421 122 427 128 427 c 4
 132 427 135 424 135 415 c 6
 135 370 l 6
 135 358 135 358 148 358 c 6
 270 358 l 6
 279 358 279 344 279 336 c 4
 279 328 279 314 270 314 c 6
 145 314 l 6
 132 314 129 313 129 302 c 6
 129 127 l 6
 129 71 149 41 200 41 c 4
 217 41 235 45 249 54 c 4
 255 57 265 63 271 63 c 4
 276 63 283 60 283 50 c 4
 283 17 210 -7 163 -7 c 4
EndSplineSet
EndChar

StartChar: u
Encoding: 117 117 20
Width: 194
VWidth: 0
Flags: W
HStem: 212 100<55.4375 138.562>
VStem: 47 100<220.438 303.562>
LayerCount: 3
Fore
SplineSet
47 262 m 0
 47 290 69 312 97 312 c 0
 125 312 147 290 147 262 c 0
 147 234 125 212 97 212 c 0
 69 212 47 234 47 262 c 0
EndSplineSet
EndChar

StartChar: v
Encoding: 118 118 21
Width: 194
VWidth: 0
Flags: W
HStem: 212 100<55.4375 138.562>
VStem: 47 100<220.438 303.562>
LayerCount: 3
Fore
SplineSet
47 262 m 0
 47 290 69 312 97 312 c 0
 125 312 147 290 147 262 c 0
 147 234 125 212 97 212 c 0
 69 212 47 234 47 262 c 0
EndSplineSet
EndChar

StartChar: w
Encoding: 119 119 22
Width: 194
VWidth: 0
Flags: W
HStem: 212 100<55.4375 138.562>
VStem: 47 100<220.438 303.562>
LayerCount: 3
Fore
SplineSet
47 262 m 0
 47 290 69 312 97 312 c 0
 125 312 147 290 147 262 c 0
 147 234 125 212 97 212 c 0
 69 212 47 234 47 262 c 0
EndSplineSet
EndChar

StartChar: x
Encoding: 120 120 23
Width: 194
VWidth: 0
Flags: W
HStem: 212 100<55.4375 138.562>
VStem: 47 100<220.438 303.562>
LayerCount: 3
Fore
SplineSet
47 262 m 0
 47 290 69 312 97 312 c 0
 125 312 147 290 147 262 c 0
 147 234 125 212 97 212 c 0
 69 212 47 234 47 262 c 0
EndSplineSet
EndChar

StartChar: y
Encoding: 121 121 24
Width: 194
VWidth: 0
Flags: W
HStem: 212 100<55.4375 138.562>
VStem: 47 100<220.438 303.562>
LayerCount: 3
Fore
SplineSet
47 262 m 0
 47 290 69 312 97 312 c 0
 125 312 147 290 147 262 c 0
 147 234 125 212 97 212 c 0
 69 212 47 234 47 262 c 0
EndSplineSet
EndChar

StartChar: z
Encoding: 122 122 25
Width: 194
VWidth: 0
Flags: W
HStem: 212 100<55.4375 138.562>
VStem: 47 100<220.438 303.562>
LayerCount: 3
Fore
SplineSet
47 262 m 0
 47 290 69 312 97 312 c 0
 125 312 147 290 147 262 c 0
 147 234 125 212 97 212 c 0
 69 212 47 234 47 262 c 0
EndSplineSet
EndChar

StartChar: zero
Encoding: 48 48 52
Width: 194
VWidth: 0
Flags: W
HStem: 212 100<55.4375 138.562>
VStem: 47 100<220.438 303.562>
LayerCount: 3
Fore
SplineSet
47 262 m 0
 47 290 69 312 97 312 c 0
 125 312 147 290 147 262 c 0
 147 234 125 212 97 212 c 0
 69 212 47 234 47 262 c 0
EndSplineSet
EndChar

StartChar: one
Encoding: 49 49 53
Width: 194
VWidth: 0
Flags: W
HStem: 212 100<55.4375 138.562>
VStem: 47 100<220.438 303.562>
LayerCount: 3
Fore
SplineSet
47 262 m 0
 47 290 69 312 97 312 c 0
 125 312 147 290 147 262 c 0
 147 234 125 212 97 212 c 0
 69 212 47 234 47 262 c 0
EndSplineSet
EndChar

StartChar: two
Encoding: 50 50 54
Width: 194
VWidth: 0
Flags: W
HStem: 212 100<55.4375 138.562>
VStem: 47 100<220.438 303.562>
LayerCount: 3
Fore
SplineSet
47 262 m 0
 47 290 69 312 97 312 c 0
 125 312 147 290 147 262 c 0
 147 234 125 212 97 212 c 0
 69 212 47 234 47 262 c 0
EndSplineSet
EndChar

StartChar: three
Encoding: 51 51 55
Width: 194
VWidth: 0
Flags: W
HStem: 212 100<55.4375 138.562>
VStem: 47 100<220.438 303.562>
LayerCount: 3
Fore
SplineSet
47 262 m 0
 47 290 69 312 97 312 c 0
 125 312 147 290 147 262 c 0
 147 234 125 212 97 212 c 0
 69 212 47 234 47 262 c 0
EndSplineSet
EndChar

StartChar: four
Encoding: 52 52 56
Width: 194
VWidth: 0
Flags: W
HStem: 212 100<55.4375 138.562>
VStem: 47 100<220.438 303.562>
LayerCount: 3
Fore
SplineSet
47 262 m 0
 47 290 69 312 97 312 c 0
 125 312 147 290 147 262 c 0
 147 234 125 212 97 212 c 0
 69 212 47 234 47 262 c 0
EndSplineSet
EndChar

StartChar: five
Encoding: 53 53 57
Width: 194
VWidth: 0
Flags: W
HStem: 212 100<55.4375 138.562>
VStem: 47 100<220.438 303.562>
LayerCount: 3
Fore
SplineSet
47 262 m 0
 47 290 69 312 97 312 c 0
 125 312 147 290 147 262 c 0
 147 234 125 212 97 212 c 0
 69 212 47 234 47 262 c 0
EndSplineSet
EndChar

StartChar: six
Encoding: 54 54 58
Width: 194
VWidth: 0
Flags: W
HStem: 212 100<55.4375 138.562>
VStem: 47 100<220.438 303.562>
LayerCount: 3
Fore
SplineSet
47 262 m 0
 47 290 69 312 97 312 c 0
 125 312 147 290 147 262 c 0
 147 234 125 212 97 212 c 0
 69 212 47 234 47 262 c 0
EndSplineSet
EndChar

StartChar: seven
Encoding: 55 55 59
Width: 194
VWidth: 0
Flags: W
HStem: 212 100<55.4375 138.562>
VStem: 47 100<220.438 303.562>
LayerCount: 3
Fore
SplineSet
47 262 m 0
 47 290 69 312 97 312 c 0
 125 312 147 290 147 262 c 0
 147 234 125 212 97 212 c 0
 69 212 47 234 47 262 c 0
EndSplineSet
EndChar

StartChar: eight
Encoding: 56 56 60
Width: 194
VWidth: 0
Flags: W
HStem: 212 100<55.4375 138.562>
VStem: 47 100<220.438 303.562>
LayerCount: 3
Fore
SplineSet
47 262 m 0
 47 290 69 312 97 312 c 0
 125 312 147 290 147 262 c 0
 147 234 125 212 97 212 c 0
 69 212 47 234 47 262 c 0
EndSplineSet
EndChar

StartChar: nine
Encoding: 57 57 61
Width: 194
VWidth: 0
Flags: W
HStem: 212 100<55.4375 138.562>
VStem: 47 100<220.438 303.562>
LayerCount: 3
Fore
SplineSet
47 262 m 0
 47 290 69 312 97 312 c 0
 125 312 147 290 147 262 c 0
 147 234 125 212 97 212 c 0
 69 212 47 234 47 262 c 0
EndSplineSet
EndChar

StartChar: .notdef
Encoding: 65536 -1 63
Width: 500
Flags: W
HStem: 0 50<100 400> 483 50<100 400>
VStem: 50 50<50 483> 400 50<50 483>
LayerCount: 3
Fore
SplineSet
50 0 m 1
 50 533 l 1
 450 533 l 1
 450 0 l 1
 50 0 l 1
100 50 m 1
 400 50 l 1
 400 483 l 1
 100 483 l 1
 100 50 l 1
EndSplineSet
EndChar
